<svg width="174" height="35" viewBox="0 0 174 35" fill="none" xmlns="http://www.w3.org/2000/svg">
<path fill-rule="evenodd" clip-rule="evenodd" d="M4.07895 20.7881C4.10913 17.8589 4.13376 12.179 4.13376 8.16599V0.869553L4.65052 0.925741C8.86547 1.38424 12.5622 2.88448 15.9157 5.49735C16.8438 6.22045 18.8457 8.27547 19.5799 9.25872L20.2564 10.1647V22.1575C20.2564 28.7535 20.2251 34.1379 20.1867 34.1227C20.1484 34.1076 19.8339 33.779 19.4878 33.3925C18.358 32.1309 16.7764 30.7914 15.2176 29.7762C12.0545 27.7163 8.54335 26.5192 4.63704 26.1687L4.02413 26.1137L4.07895 20.7881ZM27.863 4.43473C30.631 2.55857 33.9313 1.37128 37.5779 0.939767C37.7143 0.923678 37.9283 0.904866 38.0533 0.8981L38.2807 0.885724V13.5095C38.2807 20.8729 38.2499 26.1332 38.2068 26.1332C38.1661 26.1332 37.7476 26.1712 37.2766 26.2178C33.7034 26.5707 30.2149 27.7914 27.2016 29.7435C25.8659 30.6087 24.84 31.4532 23.5016 32.7893L22.1581 34.1304V22.1198V10.1091L22.8794 9.14841C24.0915 7.53381 26.1167 5.6183 27.863 4.43473ZM0.000331065 7.11508L1.01283 6.81153C1.56977 6.64462 2.05328 6.50535 2.08743 6.50213C2.12158 6.49891 2.14944 11.1577 2.14944 16.8552C2.14944 26.7827 2.12984 27.4818 2.45217 27.722C2.49545 27.7542 2.54489 27.7782 2.60137 27.8151C2.76127 27.9197 3.13606 27.9734 4.12045 28.0326C8.86316 28.3178 12.9643 30.0106 16.5304 33.1549C16.948 33.5231 17.2774 33.8365 17.2623 33.8515C17.2473 33.8664 16.9196 33.7667 16.5341 33.6297C14.809 33.0172 12.8474 32.5449 10.8722 32.2665C10.0102 32.1451 9.28987 32.1157 7.23427 32.1184C4.42174 32.1222 3.47861 32.219 1.203 32.7375C0.614232 32.8716 0.102689 32.9813 0.0661446 32.9813C0.0295999 32.9813 -8.23363e-05 27.1614 1.71595e-07 20.0482L0.000331065 7.11508ZM40.1824 27.2639V16.9213C40.1824 6.94404 40.1877 6.57878 40.3341 6.57878C40.4175 6.57878 40.9012 6.71005 41.4089 6.87045L42.332 7.16219V20.0814V33.0006L42.146 32.9594C40.9624 32.6971 39.2789 32.381 38.4461 32.2647C36.973 32.0589 33.2145 32.0612 31.7076 32.2688C29.5948 32.5599 27.5913 33.0435 25.7021 33.7182L25.0105 33.9653L25.672 33.3406C27.6187 31.5021 30.3764 29.8728 32.9864 29.0192C34.748 28.443 37.0425 28.038 38.6109 28.0263C39.4034 28.0202 39.7554 27.8976 39.9934 27.5442L40.1824 27.2639ZM66.1759 19.8224C65.9295 19.4097 65.6092 19.0678 65.215 18.7968C64.8331 18.538 64.3834 18.3286 63.866 18.1685C63.3486 18.0021 62.8496 17.8943 62.3691 17.8451V17.6695C62.8496 17.5586 63.2993 17.42 63.7181 17.2537C64.137 17.0874 64.4974 16.8903 64.7992 16.6624C65.1318 16.416 65.3875 16.1265 65.5661 15.7938C65.7447 15.455 65.8341 15.0639 65.8341 14.6204C65.8341 13.6594 65.4368 12.9326 64.6421 12.4398C63.8475 11.947 62.5539 11.7006 60.7614 11.7006H53.6375V12.4213C53.8285 12.4521 54.0503 12.4952 54.3028 12.5507C54.5554 12.5999 54.7771 12.6646 54.9681 12.7447C55.2268 12.8556 55.39 12.9849 55.4578 13.1328C55.5255 13.2806 55.5594 13.4654 55.5594 13.6872V22.9269C55.5594 23.1672 55.5163 23.3643 55.4301 23.5183C55.35 23.6661 55.196 23.7862 54.9681 23.8786C54.851 23.9279 54.6478 23.971 54.3582 24.008C54.0687 24.045 53.8285 24.0727 53.6375 24.0912V24.8119H60.4473C61.4267 24.8119 62.2767 24.7533 62.9974 24.6363C63.7243 24.5193 64.3649 24.3191 64.9193 24.0357C65.4429 23.7708 65.8433 23.4105 66.1205 22.9547C66.4038 22.4927 66.5455 21.929 66.5455 21.2638C66.5455 20.7094 66.4223 20.2289 66.1759 19.8224ZM61.6207 13.1513C62.0334 13.5578 62.2398 14.1245 62.2398 14.8514C62.2398 15.646 62.0026 16.2774 61.5283 16.7455C61.054 17.2075 60.3179 17.4385 59.32 17.4385H58.8395V12.5784C58.9751 12.5722 59.1352 12.5661 59.32 12.5599C59.511 12.5476 59.665 12.5414 59.782 12.5414C60.6013 12.5414 61.2142 12.7447 61.6207 13.1513ZM62.0735 19.0462C62.6155 19.5329 62.8866 20.232 62.8866 21.1437C62.8866 22.0368 62.6556 22.7298 62.1936 23.2226C61.7378 23.7154 61.1433 23.9618 60.4103 23.9618C59.9976 23.9618 59.6465 23.8848 59.357 23.7308C59.0675 23.5706 58.895 23.3766 58.8395 23.1487V18.3533C58.9319 18.3471 59.0736 18.3409 59.2646 18.3348C59.4617 18.3225 59.6188 18.3163 59.7358 18.3163C60.7522 18.3163 61.5314 18.5596 62.0735 19.0462ZM78.9217 18.2609C78.6814 17.6695 78.3334 17.1613 77.8776 16.7363C77.4094 16.3051 76.8458 15.9725 76.1867 15.7384C75.5337 15.4982 74.7761 15.378 73.9137 15.378C73.0883 15.378 72.3399 15.4982 71.6684 15.7384C71.0032 15.9725 70.4426 16.3051 69.9868 16.7363C69.5125 17.186 69.1552 17.7003 68.915 18.2793C68.6809 18.8522 68.5639 19.5082 68.5639 20.2474C68.5639 20.9989 68.6994 21.6796 68.9704 22.2894C69.2414 22.8931 69.611 23.4013 70.0792 23.814C70.5658 24.2452 71.1233 24.5685 71.7516 24.7841C72.3861 24.9997 73.079 25.1075 73.8305 25.1075C74.6991 25.1075 75.4691 24.9843 76.1405 24.7379C76.8181 24.4915 77.4002 24.1374 77.8868 23.6754C78.3426 23.2442 78.6876 22.7267 78.9217 22.1231C79.1619 21.5133 79.282 20.8665 79.282 20.1827C79.282 19.4928 79.1619 18.8522 78.9217 18.2609ZM75.8079 21.8828C75.7463 22.3756 75.6477 22.7945 75.5122 23.1395C75.3582 23.5398 75.1488 23.8448 74.8839 24.0542C74.619 24.2575 74.3018 24.3591 73.9322 24.3591C73.5256 24.3591 73.1899 24.2482 72.925 24.0265C72.6602 23.8047 72.4569 23.5029 72.3152 23.121C72.1489 22.6775 72.0442 22.237 72.0011 21.7997C71.9579 21.3562 71.9364 20.7987 71.9364 20.1273C71.9364 19.616 71.961 19.1263 72.0103 18.6582C72.0596 18.1839 72.1489 17.7711 72.2783 17.42C72.4199 17.0381 72.6201 16.727 72.8788 16.4868C73.1437 16.2466 73.4948 16.1265 73.9322 16.1265C74.3326 16.1265 74.6621 16.2373 74.9208 16.4591C75.1857 16.6809 75.3921 16.9858 75.5399 17.3738C75.6631 17.6941 75.7555 18.1315 75.8171 18.6859C75.8787 19.2403 75.9095 19.7331 75.9095 20.1642C75.9095 20.8172 75.8756 21.3901 75.8079 21.8828ZM91.5195 18.2609C91.2793 17.6695 90.9313 17.1613 90.4754 16.7363C90.0073 16.3051 89.4437 15.9725 88.7846 15.7384C88.1316 15.4982 87.374 15.378 86.5116 15.378C85.6862 15.378 84.9377 15.4982 84.2663 15.7384C83.6011 15.9725 83.0405 16.3051 82.5847 16.7363C82.1104 17.186 81.7531 17.7003 81.5129 18.2793C81.2788 18.8522 81.1618 19.5082 81.1618 20.2474C81.1618 20.9989 81.2973 21.6796 81.5683 22.2894C81.8393 22.8931 82.2089 23.4013 82.6771 23.814C83.1637 24.2452 83.7212 24.5685 84.3495 24.7841C84.9839 24.9997 85.6769 25.1075 86.4284 25.1075C87.297 25.1075 88.0669 24.9843 88.7384 24.7379C89.416 24.4915 89.9981 24.1374 90.4847 23.6754C90.9405 23.2442 91.2855 22.7267 91.5195 22.1231C91.7598 21.5133 91.8799 20.8665 91.8799 20.1827C91.8799 19.4928 91.7598 18.8522 91.5195 18.2609ZM88.4057 21.8828C88.3441 22.3756 88.2456 22.7945 88.1101 23.1395C87.9561 23.5398 87.7466 23.8448 87.4818 24.0542C87.2169 24.2575 86.8997 24.3591 86.5301 24.3591C86.1235 24.3591 85.7878 24.2482 85.5229 24.0265C85.2581 23.8047 85.0548 23.5029 84.9131 23.121C84.7468 22.6775 84.6421 22.237 84.599 21.7997C84.5558 21.3562 84.5343 20.7987 84.5343 20.1273C84.5343 19.616 84.5589 19.1263 84.6082 18.6582C84.6575 18.1839 84.7468 17.7711 84.8761 17.42C85.0178 17.0381 85.218 16.727 85.4767 16.4868C85.7416 16.2466 86.0927 16.1265 86.5301 16.1265C86.9305 16.1265 87.26 16.2373 87.5187 16.4591C87.7836 16.6809 87.99 16.9858 88.1378 17.3738C88.261 17.6941 88.3534 18.1315 88.415 18.6859C88.4766 19.2403 88.5074 19.7331 88.5074 20.1642C88.5074 20.8172 88.4735 21.3901 88.4057 21.8828ZM101.142 24.8119H105.494V24.1374C105.211 24.1127 104.927 24.0511 104.644 23.9526C104.361 23.854 104.124 23.66 103.933 23.3705C103.372 22.5389 102.836 21.7504 102.325 21.0051C101.814 20.2597 101.256 19.4497 100.653 18.575C100.961 18.304 101.232 18.0791 101.466 17.9005C101.706 17.7157 101.952 17.5401 102.205 17.3738C102.587 17.1213 102.938 16.9211 103.258 16.7732C103.585 16.6193 104.056 16.456 104.672 16.2835V15.646H99.978V16.302C100.366 16.3575 100.656 16.4221 100.847 16.4961C101.044 16.57 101.142 16.6624 101.142 16.7732C101.142 16.7979 101.13 16.8656 101.105 16.9765C101.087 17.0812 100.976 17.2383 100.773 17.4478C100.428 17.7989 99.9688 18.2424 99.3959 18.7783C98.8292 19.3142 98.3179 19.7854 97.8621 20.192V10.6565L97.7235 10.5087L93.1313 10.7489V11.4234C93.3223 11.4357 93.5348 11.4665 93.7689 11.5158C94.003 11.5651 94.1785 11.6267 94.2955 11.7006C94.468 11.8115 94.5974 11.9778 94.6836 12.1996C94.776 12.4151 94.8222 12.6246 94.8222 12.8279V23.1302C94.8222 23.3581 94.7853 23.5429 94.7113 23.6846C94.6436 23.8263 94.5111 23.931 94.314 23.9988C94.197 24.0357 94.0615 24.0665 93.9075 24.0912C93.7535 24.1096 93.5995 24.125 93.4455 24.1374V24.8119H99.1649V24.1374C99.0171 24.125 98.8692 24.1004 98.7214 24.0634C98.5736 24.0265 98.4442 23.9834 98.3333 23.9341C98.1485 23.8663 98.0223 23.7616 97.9545 23.6199C97.8929 23.4783 97.8621 23.2965 97.8621 23.0748V21.0605L98.4165 20.5893C98.8107 21.1498 99.2296 21.7597 99.6731 22.4188C100.117 23.0717 100.606 23.8694 101.142 24.8119ZM118.342 24.8119L118.6 20.6078H117.926C117.729 21.0821 117.464 21.6057 117.131 22.1785C116.805 22.7452 116.484 23.1857 116.17 23.4998C115.967 23.6969 115.631 23.8263 115.163 23.8879C114.701 23.9433 114.224 23.971 113.731 23.971C113.226 23.971 112.828 23.9556 112.539 23.9248C112.256 23.8879 112.034 23.8109 111.874 23.6938C111.714 23.583 111.606 23.4105 111.55 23.1764C111.495 22.9423 111.467 22.622 111.467 22.2155V13.5948C111.467 13.3792 111.507 13.1882 111.587 13.0219C111.667 12.8494 111.827 12.7231 112.068 12.6431C112.265 12.5815 112.496 12.5353 112.761 12.5045C113.032 12.4675 113.266 12.4398 113.463 12.4213V11.7006H106.265V12.4213C106.425 12.4459 106.638 12.486 106.903 12.5414C107.174 12.5907 107.405 12.6585 107.596 12.7447C107.854 12.8617 108.018 12.9942 108.085 13.142C108.153 13.2837 108.187 13.4654 108.187 13.6872V22.9362C108.187 23.1764 108.144 23.3735 108.058 23.5275C107.971 23.6815 107.817 23.8016 107.596 23.8879C107.503 23.9248 107.312 23.9649 107.023 24.008C106.733 24.045 106.481 24.0727 106.265 24.0912V24.8119H118.342ZM130.182 18.2609C129.942 17.6695 129.593 17.1613 129.138 16.7363C128.67 16.3051 128.106 15.9725 127.447 15.7384C126.794 15.4982 126.036 15.378 125.174 15.378C124.348 15.378 123.6 15.4982 122.929 15.7384C122.263 15.9725 121.703 16.3051 121.247 16.7363C120.773 17.186 120.415 17.7003 120.175 18.2793C119.941 18.8522 119.824 19.5082 119.824 20.2474C119.824 20.9989 119.959 21.6796 120.231 22.2894C120.502 22.8931 120.871 23.4013 121.339 23.814C121.826 24.2452 122.383 24.5685 123.012 24.7841C123.646 24.9997 124.339 25.1075 125.091 25.1075C125.959 25.1075 126.729 24.9843 127.401 24.7379C128.078 24.4915 128.66 24.1374 129.147 23.6754C129.603 23.2442 129.948 22.7267 130.182 22.1231C130.422 21.5133 130.542 20.8665 130.542 20.1827C130.542 19.4928 130.422 18.8522 130.182 18.2609ZM127.068 21.8828C127.006 22.3756 126.908 22.7945 126.772 23.1395C126.618 23.5398 126.409 23.8448 126.144 24.0542C125.879 24.2575 125.562 24.3591 125.192 24.3591C124.786 24.3591 124.45 24.2482 124.185 24.0265C123.92 23.8047 123.717 23.5029 123.575 23.121C123.409 22.6775 123.304 22.237 123.261 21.7997C123.218 21.3562 123.196 20.7987 123.196 20.1273C123.196 19.616 123.221 19.1263 123.27 18.6582C123.32 18.1839 123.409 17.7711 123.538 17.42C123.68 17.0381 123.88 16.727 124.139 16.4868C124.404 16.2466 124.755 16.1265 125.192 16.1265C125.593 16.1265 125.922 16.2373 126.181 16.4591C126.446 16.6809 126.652 16.9858 126.8 17.3738C126.923 17.6941 127.016 18.1315 127.077 18.6859C127.139 19.2403 127.17 19.7331 127.17 20.1642C127.17 20.8172 127.136 21.3901 127.068 21.8828ZM142.022 16.6347C142.287 16.4683 142.558 16.3636 142.835 16.3205V15.646H139.019V16.3205C139.111 16.3328 139.229 16.3544 139.37 16.3852C139.512 16.416 139.66 16.4622 139.814 16.5238C139.962 16.5854 140.088 16.6593 140.193 16.7455C140.303 16.8256 140.359 16.9211 140.359 17.032C140.359 17.0628 140.353 17.1244 140.34 17.2168C140.334 17.3092 140.303 17.4293 140.248 17.5771C139.835 18.575 139.487 19.3973 139.204 20.0441C138.927 20.6848 138.634 21.3408 138.326 22.0122C137.883 21.0389 137.461 20.1119 137.06 19.231C136.666 18.3502 136.37 17.6757 136.173 17.2075C136.136 17.1151 136.105 17.032 136.081 16.958C136.056 16.8841 136.044 16.8287 136.044 16.7917C136.044 16.6562 136.186 16.5453 136.469 16.4591C136.752 16.3729 136.999 16.3267 137.208 16.3205V15.646H131.516V16.3205C131.8 16.3575 132.077 16.4591 132.348 16.6254C132.625 16.7917 132.828 17.0196 132.958 17.3092C133.518 18.5534 134.048 19.7177 134.547 20.8018C135.052 21.8859 135.659 23.2503 136.367 24.895H138.067C138.172 24.5624 138.301 24.1928 138.455 23.7862C138.616 23.3797 138.757 23.0471 138.88 22.7883C139.281 21.9321 139.687 21.0482 140.1 20.1365C140.519 19.2187 140.944 18.3101 141.375 17.4108C141.548 17.0597 141.763 16.801 142.022 16.6347ZM152.753 23.6014C153.061 23.2873 153.323 22.9547 153.539 22.6035L152.837 22.0954C152.51 22.582 152.116 22.9855 151.654 23.3058C151.192 23.6199 150.671 23.777 150.092 23.777C149.033 23.777 148.26 23.4475 147.773 22.7883C147.287 22.1292 147.043 21.1683 147.043 19.9055H153.289V19.3049C153.289 18.7814 153.209 18.2824 153.049 17.8081C152.889 17.3276 152.633 16.9118 152.282 16.5607C151.919 16.1911 151.46 15.9016 150.905 15.6922C150.351 15.4828 149.643 15.378 148.78 15.378C147.992 15.378 147.277 15.5136 146.637 15.7846C146.002 16.0556 145.476 16.4098 145.057 16.8472C144.632 17.2968 144.302 17.8112 144.068 18.3902C143.84 18.9631 143.726 19.5637 143.726 20.192C143.726 20.888 143.831 21.5348 144.04 22.1323C144.256 22.7237 144.579 23.238 145.011 23.6754C145.442 24.1127 145.987 24.4607 146.646 24.7195C147.311 24.9782 148.1 25.1075 149.011 25.1075C149.56 25.1075 150.043 25.0459 150.462 24.9227C150.887 24.8057 151.306 24.6301 151.719 24.3961C152.107 24.1743 152.452 23.9094 152.753 23.6014ZM149.954 17.9559C149.991 18.344 150.009 18.7228 150.009 19.0924L147.043 19.1294C147.068 18.0884 147.222 17.3276 147.505 16.8472C147.789 16.3667 148.167 16.1265 148.642 16.1265C148.919 16.1265 149.147 16.2004 149.325 16.3482C149.51 16.4961 149.655 16.7147 149.76 17.0042C149.852 17.2506 149.917 17.5679 149.954 17.9559ZM163.771 18.575C164.061 18.2177 164.206 17.805 164.206 17.3369C164.206 16.7763 164.03 16.3205 163.679 15.9694C163.334 15.6121 162.875 15.4335 162.302 15.4335C161.785 15.4335 161.286 15.5752 160.805 15.8585C160.331 16.1357 159.881 16.5207 159.456 17.0135H159.419V15.6737L159.281 15.5351L154.873 15.7754V16.4499C155.077 16.4683 155.261 16.5022 155.428 16.5515C155.6 16.6008 155.742 16.6624 155.853 16.7363C156.001 16.841 156.127 16.9827 156.232 17.1613C156.336 17.3338 156.389 17.5309 156.389 17.7527V23.1302C156.389 23.3581 156.352 23.5429 156.278 23.6846C156.204 23.8263 156.068 23.931 155.871 23.9988C155.76 24.0357 155.625 24.0665 155.465 24.0912C155.311 24.1096 155.157 24.125 155.003 24.1374V24.8119H161.184V24.1374C161.049 24.1312 160.827 24.1066 160.519 24.0634C160.217 24.0142 159.998 23.9556 159.863 23.8879C159.703 23.8078 159.589 23.6969 159.521 23.5552C159.453 23.4136 159.419 23.2349 159.419 23.0193V17.9467C159.66 17.6387 159.937 17.3923 160.251 17.2075C160.565 17.0227 160.864 16.9242 161.147 16.9118C161.123 17.0166 161.095 17.1305 161.064 17.2537C161.033 17.3708 161.018 17.5371 161.018 17.7527C161.018 18.1962 161.172 18.5319 161.48 18.7598C161.794 18.9877 162.176 19.1017 162.626 19.1017C163.1 19.1017 163.482 18.9261 163.771 18.575ZM167.943 24.8581C168.515 25.0367 169.101 25.126 169.698 25.126C170.973 25.126 172.005 24.8488 172.793 24.2944C173.588 23.74 173.985 22.9577 173.985 21.9475C173.985 21.1899 173.73 20.5677 173.218 20.0811C172.707 19.5883 171.9 19.2002 170.798 18.9169C170.083 18.7321 169.526 18.535 169.125 18.3255C168.731 18.1161 168.534 17.7773 168.534 17.3092C168.534 16.958 168.669 16.6839 168.94 16.4868C169.211 16.2897 169.584 16.1911 170.058 16.1911C170.662 16.1911 171.226 16.4252 171.749 16.8934C172.273 17.3554 172.643 17.9067 172.858 18.5473H173.514L173.366 15.3965H172.664L172.47 15.9417C172.15 15.8062 171.752 15.683 171.278 15.5721C170.81 15.455 170.296 15.3965 169.735 15.3965C168.552 15.3965 167.595 15.6645 166.861 16.2004C166.135 16.7363 165.771 17.4385 165.771 18.3071C165.771 18.7752 165.854 19.1787 166.021 19.5175C166.187 19.8563 166.409 20.1458 166.686 20.386C167.006 20.657 167.314 20.8572 167.61 20.9866C167.912 21.1098 168.272 21.233 168.691 21.3562C169.11 21.4794 169.461 21.5841 169.744 21.6703C170.034 21.7566 170.299 21.8613 170.539 21.9845C170.755 22.1015 170.924 22.2401 171.047 22.4003C171.17 22.5604 171.232 22.7637 171.232 23.0101C171.232 23.4659 171.093 23.8047 170.816 24.0265C170.545 24.2421 170.129 24.3499 169.569 24.3499C169.144 24.3499 168.743 24.2544 168.368 24.0634C167.998 23.8725 167.668 23.6384 167.379 23.3612C167.102 23.084 166.855 22.7729 166.64 22.428C166.424 22.0769 166.27 21.7627 166.178 21.4855H165.503L165.623 24.932H166.344L166.621 24.3037C166.935 24.5008 167.376 24.6856 167.943 24.8581Z" fill="black"/>
</svg>
